<svg width="48" height="34" viewBox="0 0 48 34" fill="none" xmlns="http://www.w3.org/2000/svg">
<rect x="0.5" y="0.5" width="47" height="33" rx="16.5" fill="white"/>
<rect x="0.5" y="0.5" width="47" height="33" rx="16.5" stroke="#9B9B9B"/>
<path d="M12 12.5H27.5562M27.5562 12.5C27.5562 11.3158 28.4517 10 29.987 10C31.5222 10 32.4178 11.3158 32.4178 12.5M27.5562 12.5C27.5592 13.7059 28.3238 15 29.987 15C31.6501 15 32.4178 13.6842 32.4178 12.5M32.4178 12.5H36" stroke="#9B9B9B" stroke-width="1.5"/>
<path d="M36 21.5L24.0848 21.5M24.0848 21.5C24.0848 22.6842 23.1892 24 21.6539 24C20.1186 24 19.223 22.6842 19.223 21.5M24.0848 21.5C24.0818 20.2941 23.3172 19 21.6539 19C19.9906 19 19.223 20.3158 19.223 21.5M19.223 21.5L12 21.5" stroke="#9B9B9B" stroke-width="1.5"/>
</svg>
