<svg width="40" height="40" viewBox="0 0 40 40" fill="none" xmlns="http://www.w3.org/2000/svg">
<path d="M14.5425 30.7989L19.919 28.355C20.1822 28.2353 20.4844 28.2355 20.7475 28.3554L26.1082 30.7983C26.8004 31.1138 27.5775 30.5714 27.52 29.8128L27.0327 23.3826C27.0119 23.1068 27.1061 22.8348 27.293 22.631L30.8492 18.7545C31.3651 18.1921 31.0863 17.2824 30.3439 17.1057L25.3944 15.9272C25.1415 15.867 24.9219 15.7107 24.7823 15.4913L21.2086 9.87537C20.8079 9.24573 19.8837 9.26099 19.504 9.90352L16.2247 15.4531C16.0816 15.6953 15.8431 15.866 15.5677 15.9234L9.85469 17.1136C9.0677 17.2776 8.78604 18.256 9.36542 18.8133L13.3262 22.6229C13.5418 22.8302 13.6532 23.1232 13.6299 23.4214L13.1317 29.8108C13.0725 30.5698 13.8494 31.1139 14.5425 30.7989Z" stroke="#2E2E2E" stroke-width="2"/>
</svg>
