<svg width="72" height="72" viewBox="0 0 72 72" fill="none" xmlns="http://www.w3.org/2000/svg">
<rect x="1" y="1" width="70" height="70" rx="11" fill="white"/>
<rect x="1" y="1" width="70" height="70" rx="11" stroke="#22DD99" stroke-width="2"/>
<path d="M7.53181 36.3462L16.2818 21.1908C17.8818 18.4195 20.0042 18.1437 22.4579 19.5604C24.0708 20.4916 27.0651 20.4305 32.0894 22.0205C32.9035 22.3093 38.932 24.087 38.532 24.887C38.132 25.687 32.1984 32.5264 31.5317 36.3462C27.6984 41.666 17.5319 49.1137 7.53181 36.3462Z" fill="white" stroke="#22DD99" stroke-width="2" stroke-linecap="round"/>
<path d="M54.0707 18.3858L62.8207 33.5412L46.1814 48.9215L34.4033 55.7215C34.4033 55.7215 31.4587 57.4216 29.9587 54.8235C28.7064 52.6544 30.5521 51.1113 31.1958 50.6608C30.3425 51.185 27.2613 52.9168 25.5143 53.9254C23.5513 55.0587 22.036 54.7007 21.0698 53.0273C19.6698 50.6024 21.5328 49.2959 22.5144 48.7292C21.5329 49.2958 19.2697 49.9095 18.0698 47.8311C16.8698 45.7527 18.5329 44.0997 19.5144 43.533L21.4773 42.3997C20.4958 42.9664 18.4328 43.9265 17.0328 41.5017C15.6328 39.0768 17.4959 37.7702 18.4773 37.2036L33.1799 26.0813C38.2631 22.5813 33.3861 19.7446 37.6799 18.3858C42.7043 16.7958 46.2817 17.6866 47.8946 16.7554C50.3484 15.3387 52.4707 15.6145 54.0707 18.3858Z" fill="white"/>
<path d="M31.4033 50.5253C31.4033 50.5253 28.4587 52.2254 29.9587 54.8235C31.4587 57.4216 34.4033 55.7215 34.4033 55.7215L46.1814 48.9215L62.8207 33.5412L54.0707 18.3858C52.4707 15.6145 50.3484 15.3387 47.8946 16.7554C46.2817 17.6866 42.7043 16.7958 37.6799 18.3858C33.3861 19.7446 38.2631 22.5813 33.1799 26.0813L18.4773 37.2036C17.4959 37.7702 15.6328 39.0768 17.0328 41.5017C18.4328 43.9265 20.4958 42.9664 21.4773 42.3997M31.4033 50.5253L38.2738 46.5587M31.4033 50.5253C31.125 50.7457 27.4773 52.792 25.5143 53.9254C23.5513 55.0587 22.036 54.7007 21.0698 53.0273C19.6698 50.6024 21.5328 49.2959 22.5144 48.7292M22.5144 48.7292L31.3478 43.6292M22.5144 48.7292C21.5329 49.2958 19.2697 49.9095 18.0698 47.8311C16.8698 45.7527 18.5329 44.0997 19.5144 43.533L21.4773 42.3997M30.3108 37.2997L21.4773 42.3997" stroke="#22DD99" stroke-width="2" stroke-linecap="round"/>
<path d="M39.1313 54.4503C39.1313 54.4503 41.5829 56.1796 43.3121 53.7281C44.7558 51.6814 43.2854 50.1381 42.7604 49.6842C43.3529 50.1303 45.2594 51.4443 46.7168 52.4617C46.9868 52.6823 47.255 52.8661 47.4927 53.0057C49.1271 54.1585 50.5597 53.8624 51.6734 52.2834C53.2874 49.9954 51.7683 48.6791 50.9511 48.1027C51.7683 48.679 53.7486 49.3415 55.1319 47.3803C56.5152 45.4192 55.2267 43.7761 54.4095 43.1997C54.0362 42.8868 53.5485 42.5318 53.0009 42.2061L52.7752 42.0469C53.5924 42.6233 55.342 43.6127 56.9559 41.3246C58.5698 39.0366 57.0507 37.7203 56.2336 37.1439C54.6954 35.8549 51.2153 33.849 49.6014 36.137C47.9875 38.4251 51.0448 41.0303 52.7752 42.0469L53.0009 42.2061C51.2921 41.1899 48.9997 40.4599 47.7774 42.1927C46.4576 44.0638 48.2613 46.1468 49.9088 47.3999C48.5855 46.683 46.7328 46.276 45.5447 47.9604C44.2735 49.7626 45.5128 51.4782 46.7168 52.4617C45.2594 51.4443 43.3529 50.1303 42.7604 49.6842C42.6566 49.5945 42.5897 49.5473 42.5897 49.5473C41.7726 48.9709 39.7924 48.3084 38.409 50.2696C37.0257 52.2308 38.3142 53.8739 39.1313 54.4503Z" fill="white"/>
<path d="M42.5897 49.5473C42.5897 49.5473 45.0413 51.2766 43.3121 53.7281C41.5829 56.1796 39.1313 54.4503 39.1313 54.4503C38.3142 53.8739 37.0257 52.2308 38.409 50.2696C39.7924 48.3084 41.7726 48.9709 42.5897 49.5473ZM42.5897 49.5473C42.8132 49.7682 45.8584 51.8529 47.4927 53.0057M50.9511 48.1027C51.7683 48.6791 53.2874 49.9954 51.6734 52.2834C50.5597 53.8624 49.1271 54.1585 47.4927 53.0057M50.9511 48.1027C51.7683 48.679 53.7486 49.3415 55.1319 47.3803C56.5152 45.4192 55.2267 43.7761 54.4095 43.1997M50.9511 48.1027C49.7974 47.136 47.101 45.7541 45.5447 47.9604C43.9884 50.1668 46.1949 52.2433 47.4927 53.0057M50.9511 48.1027C49.2207 47.0861 46.1634 44.4809 47.7774 42.1927C49.3914 39.9046 52.8713 41.9106 54.4095 43.1997M54.4095 43.1997L52.7752 42.0469M52.7752 42.0469C53.5924 42.6233 55.342 43.6127 56.9559 41.3246C58.5698 39.0366 57.0507 37.7203 56.2336 37.1439C54.6954 35.8549 51.2153 33.849 49.6014 36.137C47.9875 38.4251 51.0448 41.0303 52.7752 42.0469Z" stroke="#22DD99" stroke-width="2" stroke-linecap="round"/>
</svg>
