<svg width="32" height="32" viewBox="0 0 32 32" fill="none" xmlns="http://www.w3.org/2000/svg">
<path d="M15.25 5.78415C15.4636 5.77727 15.6823 5.77379 15.9061 5.77379C16.1185 5.77379 16.3264 5.77728 16.5299 5.78415C29.0454 6.20713 24.9228 19.4526 26.9496 22.6372C29.0094 25.8736 27.6362 26.8957 26.263 26.8957H21.5M21.5 26.8957C21.3124 27.9335 21 29.9726 16 29.9997C11 30.0269 10.6473 27.9335 10.5 26.8957M21.5 26.8957H10.5M10.5 26.8957H6.86644C5.28791 27.0092 2.66601 26.3165 4.80663 22.6372C7.43729 18.1156 2.79266 6.18518 15.25 5.78415M15.25 5.78415C14.4374 4.52277 11.3123 2 15.9061 2C20.5 2 17.3532 4.52277 16.5299 5.78415" stroke="#AEAEAE" stroke-width="2"/>
</svg>
