<svg width="23" height="26" viewBox="0 0 23 26" fill="none" xmlns="http://www.w3.org/2000/svg">
<path d="M10.8438 4.24356C11.0307 4.23766 11.222 4.23468 11.4179 4.23468C11.6037 4.23468 11.7856 4.23766 11.9636 4.24356C22.9147 4.60611 19.3074 15.9594 21.0809 18.689C22.8832 21.4631 21.6817 22.3391 20.4801 22.3391H16.3125M16.3125 22.3391C16.1484 23.2287 15.875 24.9765 11.5 24.9998C7.125 25.023 6.81635 23.2287 6.6875 22.3391M16.3125 22.3391H6.6875M6.6875 22.3391H3.50814C2.12692 22.4365 -0.167241 21.8427 1.7058 18.689C4.00763 14.8134 -0.0564235 4.5873 10.8438 4.24356M10.8438 4.24356C10.1328 3.16237 7.39825 1 11.4179 1C15.4375 1 12.6841 3.16237 11.9636 4.24356" stroke="#2E2E2E" stroke-width="2"/>
</svg>
