<svg width="68" height="40" viewBox="0 0 68 40" fill="none" xmlns="http://www.w3.org/2000/svg">
<path d="M0.493365 6.81823L8.06462 6.81823V12.5757C8.06462 14.0908 5.94466 16.6665 2.61331 16.6665C-0.718035 16.6665 -1.02089 21.2118 2.61331 21.2118C6.24752 21.2118 10.3418 20.1513 10.3418 16.6665C10.3418 20.1513 14.1216 21.2118 17.7558 21.2118C21.39 21.2118 21.0872 16.6665 17.7558 16.6665C14.4245 16.6665 13.2131 14.3938 13.2131 12.5757V6.81823H20.0272V3.18195L4.12756 3.18195C1.46248 3.18195 0.594315 5.60613 0.493365 6.81823Z" fill="#22DD99"/>
<path d="M20.1689 13.636C16.8692 13.636 17.4515 8.76603 20.1689 8.76603H26.5742V0H31.2326V19.6965C31.2326 22.6575 28.127 23.6575 26.5742 23.7873L26.5742 13.636H20.1689Z" fill="#22DD99"/>
<path d="M21.7012 23.0301C26.4727 23.0301 30.3407 26.8286 30.3408 31.5145C30.3408 36.2004 26.4728 39.9998 21.7012 39.9998C16.9296 39.9997 13.0615 36.2004 13.0615 31.5145C13.0617 26.8287 16.9297 23.0302 21.7012 23.0301ZM21.7012 27.8377C19.6335 27.8377 17.957 29.4839 17.957 31.5145C17.9571 33.545 19.6335 35.1912 21.7012 35.1912C23.7688 35.1912 25.4453 33.545 25.4453 31.5145C25.4453 29.4839 23.7689 27.8377 21.7012 27.8377Z" fill="#22DD99"/>
<path d="M57.4375 23.0301C62.209 23.0301 66.077 26.8286 66.0771 31.5145C66.0771 36.2004 62.2091 39.9998 57.4375 39.9998C52.6659 39.9997 48.7979 36.2004 48.7979 31.5145C48.798 26.8287 52.666 23.0302 57.4375 23.0301ZM57.4375 27.8377C55.3698 27.8377 53.6934 29.4839 53.6934 31.5145C53.6934 33.545 55.3698 35.1912 57.4375 35.1912C59.5052 35.1912 61.1816 33.545 61.1816 31.5145C61.1816 29.4839 59.5052 27.8377 57.4375 27.8377Z" fill="#22DD99"/>
<path d="M53.9326 19.6966H36.0781V4.24249H53.9326V19.6966ZM41.2559 8.80402V15.1351H48.7549V8.80402H41.2559Z" fill="#22DD99"/>
<path d="M56.7855 10.3028C52.9999 10.3028 52.9999 5.45442 56.7855 5.45442H62.8047L62.8047 0H67.2717V19.848C67.2717 22.6358 64.1171 23.6358 62.8047 23.7873V19.545H56.7855C53.4542 19.545 53.4542 14.8481 56.7855 14.8481H62.8047L62.8047 10.3028H56.7855Z" fill="#22DD99"/>
</svg>
